<mxfile host="app.diagrams.net" modified="2023-07-09T08:11:48.974Z" agent="Mozilla/5.0 (Windows NT 10.0; Win64; x64) AppleWebKit/537.36 (KHTML, like Gecko) Chrome/114.0.0.0 Safari/537.36" version="21.3.6" etag="rNqZzwyIfsxS-8LkUVOe" type="github">
  <diagram name="第 1 页" id="vkMby_YuFX8KF3kqDsez">
    <mxGraphModel>
      <root>
        <mxCell id="0" />
        <mxCell id="1" parent="0" />
      </root>
    </mxGraphModel>
  </diagram>
</mxfile>
